<svg width="129" height="151" viewBox="0 0 129 151" fill="none" xmlns="http://www.w3.org/2000/svg">
    <path d="M56.152 124.12C58.168 124.792 60.184 125.128 62.2 125.128C64.1413 125.128 66.1947 124.717 68.36 123.896C70.5253 123.075 72.504 121.768 74.296 119.976C76.088 118.259 77.544 115.645 78.664 112.136C79.8587 108.627 80.456 104.483 80.456 99.704V38.776C80.3813 36.8347 79.6347 35.192 78.216 33.848C76.872 32.4293 75.2293 31.72 73.288 31.72H71.832V30.6H96.36V31.72H94.904C92.9627 31.72 91.2827 32.392 89.864 33.736C88.52 35.08 87.8107 36.76 87.736 38.776V100.04C87.736 105.117 86.952 109.56 85.384 113.368C83.816 117.176 81.8373 120.051 79.448 121.992C74.968 125.501 70.0027 127.256 64.552 127.256C61.3413 127.256 58.392 126.621 55.704 125.352L56.152 124.12Z" fill="url(#paint0_linear_507_50)"/>
    <path d="M112.192 129.496C104.053 133.603 95.8027 134.275 87.44 131.512C78.5547 128.675 70.9013 122.627 64.48 113.368C61.0453 108.44 58.096 102.728 55.632 96.232L52.048 86.712H25.616L19.68 100.824C19.3067 101.795 19.12 102.579 19.12 103.176C19.12 103.773 19.232 104.445 19.456 105.192C19.7547 105.864 20.3147 106.499 21.136 107.096C22.032 107.619 23.0027 107.88 24.048 107.88H24.944V109H0.976V107.88H1.984C3.70133 107.88 5.38133 107.395 7.024 106.424C8.74133 105.379 10.16 103.848 11.28 101.832L36.256 44.824C33.344 38.2533 30.2453 33.736 26.96 31.272C24.1973 29.1813 21.5467 28.136 19.008 28.136C16.544 28.136 14.2293 28.5093 12.064 29.256L11.84 28.136C17.216 25.3733 22.368 23.992 27.296 23.992C33.4187 23.992 38.9067 26.3813 43.76 31.16C48.5387 35.864 52.7573 42.6587 56.416 51.544L72.656 91.64C78.7787 106.797 85.0507 117.213 91.472 122.888C94.0853 125.203 96.7733 126.808 99.536 127.704C102.299 128.6 104.613 129.048 106.48 129.048C108.421 129.048 110.288 128.824 112.08 128.376L112.192 129.496ZM27.52 81.896H50.368L42.528 61.176C42.1547 60.1307 41.632 58.712 40.96 56.92C40.288 55.0533 39.84 53.7467 39.616 53L27.52 81.896Z" fill="url(#paint1_linear_507_50)"/>
    <g filter="url(#filter0_d_507_50)">
        <path d="M35.416 109.867C34.074 109.867 32.915 109.42 31.939 108.525C30.9223 107.63 30.414 106.288 30.414 104.499C30.414 103.076 30.7393 101.53 31.39 99.863C32.0407 98.1957 32.9353 96.5487 34.074 94.922C35.2127 93.2953 36.514 91.8313 37.978 90.53C39.442 89.188 41.0077 88.1103 42.675 87.297C44.3423 86.4837 46.0097 86.077 47.677 86.077C49.4257 86.077 50.91 86.5243 52.13 87.419C53.35 88.3137 53.96 89.493 53.96 90.957C53.96 92.055 53.5737 92.848 52.801 93.336C52.0283 93.824 51.1133 93.9663 50.056 93.763C50.1373 93.397 50.1983 93.031 50.239 92.665C50.3203 92.299 50.361 91.9127 50.361 91.506C50.361 90.6927 50.1983 89.9607 49.873 89.31C49.5477 88.6593 48.8563 88.334 47.799 88.334C46.6603 88.334 45.5013 88.7203 44.322 89.493C43.1427 90.2657 42.004 91.2823 40.906 92.543C39.8487 93.763 38.893 95.1253 38.039 96.63C37.185 98.094 36.514 99.5377 36.026 100.961C35.538 102.384 35.294 103.665 35.294 104.804C35.294 106.105 35.7617 106.756 36.697 106.756C37.6323 106.756 38.6693 106.309 39.808 105.414C40.9467 104.479 42.0853 103.32 43.224 101.937C44.4033 100.554 45.5217 99.1513 46.579 97.728C47.6363 96.264 48.5513 95.0237 49.324 94.007C49.446 93.8037 49.6087 93.702 49.812 93.702C49.9747 93.7427 50.2797 93.8443 50.727 94.007C51.215 94.129 51.6623 94.3323 52.069 94.617C52.4757 94.9017 52.679 95.2677 52.679 95.715C52.679 96.1217 52.496 96.6503 52.13 97.301C51.8047 97.911 51.398 98.6023 50.91 99.375C50.4627 100.107 50.056 100.859 49.69 101.632C49.3647 102.364 49.202 103.076 49.202 103.767C49.202 104.296 49.3443 104.804 49.629 105.292C49.9137 105.739 50.3813 105.963 51.032 105.963C52.008 105.963 53.3703 105.251 55.119 103.828C56.9083 102.364 58.718 99.9037 60.548 96.447L61.707 97.606C60.731 99.802 59.5517 101.754 58.169 103.462C56.827 105.129 55.4037 106.431 53.899 107.366C52.3943 108.342 50.8693 108.83 49.324 108.83C47.6567 108.83 46.4163 108.301 45.603 107.244C44.7897 106.187 44.3423 105.048 44.261 103.828C44.261 103.747 44.261 103.686 44.261 103.645C44.261 103.604 44.261 103.564 44.261 103.523C42.6343 105.475 41.1297 107.02 39.747 108.159C38.405 109.298 36.9613 109.867 35.416 109.867ZM70.3895 108.586C68.8848 108.586 67.6648 108.179 66.7295 107.366C65.7942 106.593 65.3265 105.536 65.3265 104.194C65.3265 103.055 65.6112 101.835 66.1805 100.534C66.7498 99.2327 67.3192 97.9517 67.8885 96.691C68.4985 95.4303 68.8035 94.312 68.8035 93.336C68.8035 92.4007 68.4985 91.628 67.8885 91.018C67.2785 90.3673 66.5668 89.8387 65.7535 89.432C64.8588 91.6687 63.8422 93.8443 62.7035 95.959C61.6055 98.033 60.7108 99.6597 60.0195 100.839L59.1045 99.07C59.6738 98.0127 60.4262 96.508 61.3615 94.556C62.2968 92.604 63.1915 90.4283 64.0455 88.029C63.6388 87.6223 63.4355 87.0733 63.4355 86.382C63.4355 85.3247 63.7608 84.3283 64.4115 83.393C65.0622 82.4577 65.6925 81.99 66.3025 81.99C66.7905 81.99 67.1362 82.2747 67.3395 82.844C67.5835 83.3727 67.7055 83.7387 67.7055 83.942C67.7055 84.1453 67.6038 84.5113 67.4005 85.04C67.2378 85.5687 67.1158 85.955 67.0345 86.199C67.0752 86.6463 67.4208 87.0937 68.0715 87.541C68.7628 87.9477 69.5355 88.4357 70.3895 89.005C71.2435 89.5743 71.9958 90.286 72.6465 91.14C73.2972 91.994 73.6225 93.0717 73.6225 94.373C73.6225 95.5523 73.3582 96.752 72.8295 97.972C72.3008 99.192 71.7722 100.331 71.2435 101.388C70.7148 102.445 70.4505 103.36 70.4505 104.133C70.4505 104.702 70.5928 105.089 70.8775 105.292C71.2028 105.455 71.5688 105.536 71.9755 105.536C72.9515 105.536 73.9682 105.251 75.0255 104.682C76.0828 104.072 77.1198 103.299 78.1365 102.364C79.1532 101.429 80.0478 100.453 80.8205 99.436C81.5932 98.3787 82.1828 97.423 82.5895 96.569L84.0535 97.667C83.2808 99.4157 82.1625 101.144 80.6985 102.852C79.2345 104.519 77.6078 105.902 75.8185 107C74.0292 108.057 72.2195 108.586 70.3895 108.586ZM73.0906 124.08C71.9113 124.08 70.976 123.734 70.2846 123.043C69.5933 122.392 69.2476 121.538 69.2476 120.481C69.2476 118.895 69.9796 117.268 71.4436 115.601C72.9076 113.934 74.7783 112.409 77.0556 111.026C77.747 110.66 78.4383 110.294 79.1296 109.928C79.821 109.603 80.5326 109.298 81.2646 109.013C81.956 107.346 82.5863 105.475 83.1556 103.401C83.7656 101.327 84.2943 99.07 84.7416 96.63C84.4163 97.1993 84.0503 97.7687 83.6436 98.338C83.2776 98.9073 82.932 99.497 82.6066 100.107L81.5696 98.46C82.3016 97.0773 82.9523 95.654 83.5216 94.19C84.091 92.6853 84.64 91.3027 85.1686 90.042C85.6973 88.7407 86.2463 87.6833 86.8156 86.87C87.385 86.0567 88.056 85.65 88.8286 85.65C89.398 85.65 89.8453 85.8737 90.1706 86.321C90.5366 86.7277 90.7196 87.2563 90.7196 87.907C90.7196 88.3543 90.618 89.188 90.4146 90.408C90.2113 91.5873 89.9266 93.0513 89.5606 94.8C89.1946 96.5487 88.727 98.4397 88.1576 100.473C87.629 102.506 87.019 104.56 86.3276 106.634C87.507 105.983 88.6456 105.272 89.7436 104.499C90.8823 103.726 92.0006 102.75 93.0986 101.571C94.2373 100.351 95.376 98.7853 96.5146 96.874L97.6126 97.606C96.352 100.209 95.01 102.222 93.5866 103.645C92.1633 105.068 90.74 106.187 89.3166 107C87.934 107.773 86.6123 108.566 85.3516 109.379C84.457 111.819 83.3793 114.157 82.1186 116.394C80.8986 118.671 79.5363 120.522 78.0316 121.945C76.4863 123.368 74.8393 124.08 73.0906 124.08ZM72.4196 121.152C73.1516 121.152 74.209 120.4 75.5916 118.895C76.9743 117.39 78.3976 115.154 79.8616 112.185C77.137 113.568 75.1036 114.95 73.7616 116.333C72.379 117.756 71.6876 119.017 71.6876 120.115C71.6876 120.522 71.769 120.786 71.9316 120.908C72.0536 121.071 72.2163 121.152 72.4196 121.152ZM89.7436 81.136C88.971 81.136 88.2593 80.953 87.6086 80.587C86.9986 80.1803 86.6936 79.5907 86.6936 78.818C86.6936 78.1267 86.958 77.5167 87.4866 76.988C88.0153 76.4187 88.666 75.9713 89.4386 75.646C90.2113 75.3207 90.9636 75.158 91.6956 75.158C92.387 75.158 92.9766 75.341 93.4646 75.707C93.9526 76.0323 94.1966 76.561 94.1966 77.293C94.1966 78.3097 93.7493 79.2043 92.8546 79.977C91.96 80.7497 90.923 81.136 89.7436 81.136ZM98.501 109.867C97.159 109.867 96 109.42 95.024 108.525C94.0073 107.63 93.499 106.288 93.499 104.499C93.499 103.076 93.8243 101.53 94.475 99.863C95.1256 98.1957 96.0203 96.5487 97.159 94.922C98.2976 93.2953 99.599 91.8313 101.063 90.53C102.527 89.188 104.093 88.1103 105.76 87.297C107.427 86.4837 109.095 86.077 110.762 86.077C112.511 86.077 113.995 86.5243 115.215 87.419C116.435 88.3137 117.045 89.493 117.045 90.957C117.045 92.055 116.659 92.848 115.886 93.336C115.113 93.824 114.198 93.9663 113.141 93.763C113.222 93.397 113.283 93.031 113.324 92.665C113.405 92.299 113.446 91.9127 113.446 91.506C113.446 90.6927 113.283 89.9607 112.958 89.31C112.633 88.6593 111.941 88.334 110.884 88.334C109.745 88.334 108.586 88.7203 107.407 89.493C106.228 90.2657 105.089 91.2823 103.991 92.543C102.934 93.763 101.978 95.1253 101.124 96.63C100.27 98.094 99.599 99.5377 99.111 100.961C98.623 102.384 98.379 103.665 98.379 104.804C98.379 106.105 98.8466 106.756 99.782 106.756C100.717 106.756 101.754 106.309 102.893 105.414C104.032 104.479 105.17 103.32 106.309 101.937C107.488 100.554 108.607 99.1513 109.664 97.728C110.721 96.264 111.636 95.0237 112.409 94.007C112.531 93.8037 112.694 93.702 112.897 93.702C113.06 93.7427 113.365 93.8443 113.812 94.007C114.3 94.129 114.747 94.3323 115.154 94.617C115.561 94.9017 115.764 95.2677 115.764 95.715C115.764 96.1217 115.581 96.6503 115.215 97.301C114.89 97.911 114.483 98.6023 113.995 99.375C113.548 100.107 113.141 100.859 112.775 101.632C112.45 102.364 112.287 103.076 112.287 103.767C112.287 104.296 112.429 104.804 112.714 105.292C112.999 105.739 113.466 105.963 114.117 105.963C115.093 105.963 116.455 105.251 118.204 103.828C119.993 102.364 121.803 99.9037 123.633 96.447L124.792 97.606C123.816 99.802 122.637 101.754 121.254 103.462C119.912 105.129 118.489 106.431 116.984 107.366C115.479 108.342 113.954 108.83 112.409 108.83C110.742 108.83 109.501 108.301 108.688 107.244C107.875 106.187 107.427 105.048 107.346 103.828C107.346 103.747 107.346 103.686 107.346 103.645C107.346 103.604 107.346 103.564 107.346 103.523C105.719 105.475 104.215 107.02 102.832 108.159C101.49 109.298 100.046 109.867 98.501 109.867Z" fill="#8A2EE7"/>
    </g>
    <defs>
        <filter id="filter0_d_507_50" x="26.414" y="75.1582" width="102.378" height="57.9219" filterUnits="userSpaceOnUse" color-interpolation-filters="sRGB">
            <feFlood flood-opacity="0" result="BackgroundImageFix"/>
            <feColorMatrix in="SourceAlpha" type="matrix" values="0 0 0 0 0 0 0 0 0 0 0 0 0 0 0 0 0 0 127 0" result="hardAlpha"/>
            <feOffset dy="5"/>
            <feGaussianBlur stdDeviation="2"/>
            <feComposite in2="hardAlpha" operator="out"/>
            <feColorMatrix type="matrix" values="0 0 0 0 0 0 0 0 0 0 0 0 0 0 0 0 0 0 0.29 0"/>
            <feBlend mode="normal" in2="BackgroundImageFix" result="effect1_dropShadow_507_50"/>
            <feBlend mode="normal" in="SourceGraphic" in2="effect1_dropShadow_507_50" result="shape"/>
        </filter>
        <linearGradient id="paint0_linear_507_50" x1="84" y1="0" x2="84" y2="151" gradientUnits="userSpaceOnUse">
            <stop/>
            <stop offset="1" stop-opacity="0"/>
        </linearGradient>
        <linearGradient id="paint1_linear_507_50" x1="43.5" y1="0" x2="43.5" y2="151" gradientUnits="userSpaceOnUse">
            <stop offset="0.541667" stop-color="#FB57BA"/>
            <stop offset="1" stop-color="#FB57BA" stop-opacity="0"/>
        </linearGradient>
    </defs>
</svg>
