<svg width="108" height="151" viewBox="0 0 108 151" fill="none" xmlns="http://www.w3.org/2000/svg">
    <path d="M54.152 124.12C56.168 124.792 58.184 125.128 60.2 125.128C62.1413 125.128 64.1947 124.717 66.36 123.896C68.5253 123.075 70.504 121.768 72.296 119.976C74.088 118.259 75.544 115.645 76.664 112.136C77.8587 108.627 78.456 104.483 78.456 99.704V38.776C78.3813 36.8347 77.6347 35.192 76.216 33.848C74.872 32.4293 73.2293 31.72 71.288 31.72H69.832V30.6H94.36V31.72H92.904C90.9627 31.72 89.2827 32.392 87.864 33.736C86.52 35.08 85.8107 36.76 85.736 38.776V100.04C85.736 105.117 84.952 109.56 83.384 113.368C81.816 117.176 79.8373 120.051 77.448 121.992C72.968 125.501 68.0027 127.256 62.552 127.256C59.3413 127.256 56.392 126.621 53.704 125.352L54.152 124.12Z" fill="black"/>
    <path d="M15.328 26.792C20.1813 24.776 24.848 23.768 29.328 23.768C33.0613 23.768 36.9067 25.1493 40.864 27.912C43.0293 29.4053 45.456 32.3173 48.144 36.648C49.936 39.6347 52.2133 45.048 54.976 52.888L68.64 91.64C71.776 100.301 74.9493 107.171 78.16 112.248C81.4453 117.4 84.432 121.245 87.12 123.784C89.808 126.397 92.608 128.227 95.52 129.272C98.432 130.317 100.821 130.84 102.688 130.84C104.629 130.84 106.347 130.691 107.84 130.392L107.952 131.512C104.368 132.707 100.859 133.304 97.424 133.304C93.9893 133.304 90.5547 132.408 87.12 130.616C83.6853 128.899 80.4747 126.472 77.488 123.336C71.0667 116.84 65.616 106.947 61.136 93.656L56.768 80.888H26.08L18.352 100.824C17.9787 101.72 17.792 102.616 17.792 103.512C17.792 104.408 18.1653 105.379 18.912 106.424C19.7333 107.395 20.9653 107.88 22.608 107.88H23.504V109H0.992V107.88H2C3.792 107.88 5.54667 107.357 7.264 106.312C8.98133 105.192 10.4 103.549 11.52 101.384L39.296 34.856C35.264 29.1067 30.2613 26.232 24.288 26.232C21.6 26.232 18.7253 26.792 15.664 27.912L15.328 26.792ZM27.312 77.528H55.648L46.8 51.432C45.0827 46.4293 43.5147 42.5093 42.096 39.672L27.312 77.528Z" fill="#FB57BA"/>
    <path d="M3.776 127.739C3.01133 127.739 2.37 127.48 1.852 126.962C1.30933 126.469 1.038 125.704 1.038 124.668C1.038 123.78 1.23533 122.83 1.63 121.819C2.02467 120.783 2.56733 119.772 3.258 118.785C3.94867 117.774 4.72567 116.861 5.589 116.047C6.477 115.208 7.402 114.542 8.364 114.049C9.35067 113.556 10.325 113.309 11.287 113.309C12.249 113.309 13.0507 113.568 13.692 114.086C14.3333 114.579 14.654 115.245 14.654 116.084C14.654 116.701 14.4813 117.12 14.136 117.342C13.8153 117.564 13.3837 117.675 12.841 117.675C12.8903 117.478 12.9273 117.268 12.952 117.046C13.0013 116.799 13.026 116.577 13.026 116.38C13.026 115.813 12.8903 115.332 12.619 114.937C12.3477 114.518 11.879 114.308 11.213 114.308C10.5223 114.308 9.81933 114.555 9.104 115.048C8.38867 115.517 7.698 116.158 7.032 116.972C6.366 117.761 5.774 118.625 5.256 119.562C4.738 120.499 4.331 121.424 4.035 122.337C3.739 123.25 3.591 124.064 3.591 124.779C3.591 125.741 3.924 126.222 4.59 126.222C5.15733 126.222 5.774 125.963 6.44 125.445C7.106 124.902 7.78433 124.224 8.475 123.41C9.19033 122.571 9.86867 121.708 10.51 120.82C11.1513 119.932 11.7187 119.118 12.212 118.378C12.3107 118.23 12.3723 118.156 12.397 118.156C12.545 118.181 12.73 118.23 12.952 118.304C13.1987 118.378 13.4083 118.477 13.581 118.6C13.7537 118.723 13.84 118.884 13.84 119.081C13.84 119.303 13.729 119.611 13.507 120.006C13.285 120.376 13.0383 120.808 12.767 121.301C12.4957 121.794 12.249 122.3 12.027 122.818C11.805 123.311 11.694 123.78 11.694 124.224C11.694 124.594 11.7927 124.964 11.99 125.334C12.1873 125.679 12.508 125.852 12.952 125.852C13.618 125.852 14.4937 125.371 15.579 124.409C16.6643 123.422 17.762 121.955 18.872 120.006L19.242 120.376C18.724 121.708 18.058 122.88 17.244 123.891C16.43 124.902 15.5543 125.692 14.617 126.259C13.7043 126.826 12.804 127.11 11.916 127.11C11.0033 127.11 10.325 126.839 9.881 126.296C9.46167 125.753 9.252 125.161 9.252 124.52C9.252 124.372 9.26433 124.212 9.289 124.039C9.31367 123.842 9.33833 123.644 9.363 123.447C8.30233 124.878 7.328 125.951 6.44 126.666C5.57667 127.381 4.68867 127.739 3.776 127.739ZM24.5162 126.962C23.6776 126.962 23.0116 126.74 22.5182 126.296C22.0496 125.852 21.8152 125.272 21.8152 124.557C21.8152 123.817 21.9879 123.04 22.3332 122.226C22.6786 121.412 23.0116 120.61 23.3322 119.821C23.6776 119.007 23.8502 118.279 23.8502 117.638C23.8502 116.849 23.6159 116.269 23.1472 115.899C22.7032 115.504 22.2469 115.147 21.7782 114.826C21.2109 116.281 20.6189 117.663 20.0022 118.97C19.3856 120.277 18.8799 121.264 18.4852 121.93L18.1522 121.301C18.4976 120.66 18.9416 119.722 19.4842 118.489C20.0516 117.256 20.6066 115.85 21.1492 114.271C20.9026 114.024 20.7792 113.728 20.7792 113.383C20.7792 112.643 20.9889 112.039 21.4082 111.57C21.8276 111.101 22.1359 110.867 22.3332 110.867C22.6046 110.867 22.7526 110.99 22.7772 111.237C22.8266 111.459 22.8512 111.632 22.8512 111.755C22.8512 111.878 22.7772 112.125 22.6292 112.495C22.5059 112.84 22.4442 113.05 22.4442 113.124C22.4442 113.469 22.6292 113.79 22.9992 114.086C23.3939 114.357 23.8379 114.678 24.3312 115.048C24.8246 115.393 25.2562 115.825 25.6262 116.343C26.0209 116.836 26.2182 117.478 26.2182 118.267C26.2182 119.007 26.0579 119.759 25.7372 120.524C25.4412 121.289 25.1329 122.016 24.8122 122.707C24.5162 123.398 24.3682 124.002 24.3682 124.52C24.3682 124.964 24.4792 125.26 24.7012 125.408C24.9232 125.556 25.1822 125.63 25.4782 125.63C26.0702 125.63 26.6746 125.445 27.2912 125.075C27.9326 124.705 28.5492 124.236 29.1412 123.669C29.7332 123.102 30.2636 122.51 30.7322 121.893C31.2009 121.252 31.5462 120.66 31.7682 120.117L32.2492 120.487C31.7806 121.523 31.1392 122.547 30.3252 123.558C29.5112 124.545 28.5986 125.359 27.5872 126C26.6006 126.641 25.5769 126.962 24.5162 126.962ZM25.7985 136.36C25.1818 136.36 24.7132 136.175 24.3925 135.805C24.0472 135.46 23.8745 135.016 23.8745 134.473C23.8745 133.56 24.3185 132.561 25.2065 131.476C26.0698 130.391 27.1798 129.466 28.5365 128.701C28.8818 128.504 29.2518 128.319 29.6465 128.146C30.0165 127.973 30.4358 127.764 30.9045 127.517C31.3978 126.333 31.8542 124.989 32.2735 123.484C32.6928 121.955 33.0628 120.265 33.3835 118.415C33.0135 119.081 32.6682 119.661 32.3475 120.154C32.0515 120.647 31.8172 121.042 31.6445 121.338L31.3115 120.783C31.7308 120.018 32.1008 119.204 32.4215 118.341C32.7668 117.453 33.0875 116.614 33.3835 115.825C33.7042 115.036 34.0248 114.394 34.3455 113.901C34.6662 113.408 35.0115 113.161 35.3815 113.161C35.6528 113.161 35.8625 113.272 36.0105 113.494C36.1832 113.691 36.2695 113.95 36.2695 114.271C36.2695 114.542 36.1955 115.073 36.0475 115.862C35.9242 116.627 35.7268 117.576 35.4555 118.711C35.2088 119.821 34.9005 121.03 34.5305 122.337C34.1605 123.644 33.7535 124.964 33.3095 126.296C34.0248 125.877 34.7402 125.445 35.4555 125.001C36.1708 124.557 36.8862 123.965 37.6015 123.225C38.3415 122.485 39.0568 121.474 39.7475 120.191L40.2285 120.45C39.6118 121.905 38.8718 123.065 38.0085 123.928C37.1698 124.767 36.3065 125.433 35.4185 125.926C34.5305 126.419 33.7042 126.888 32.9395 127.332C32.3968 128.861 31.7555 130.317 31.0155 131.698C30.3002 133.079 29.5108 134.202 28.6475 135.065C27.7595 135.928 26.8098 136.36 25.7985 136.36ZM25.4655 135.102C25.9588 135.102 26.6742 134.559 27.6115 133.474C28.5242 132.413 29.4615 130.822 30.4235 128.701C28.5488 129.614 27.1552 130.563 26.2425 131.55C25.3052 132.537 24.8365 133.425 24.8365 134.214C24.8365 134.535 24.8982 134.757 25.0215 134.88C25.1448 135.028 25.2928 135.102 25.4655 135.102ZM35.9735 109.831C35.5788 109.831 35.2335 109.732 34.9375 109.535C34.6415 109.338 34.4935 109.042 34.4935 108.647C34.4935 108.277 34.6292 107.944 34.9005 107.648C35.1965 107.352 35.5542 107.118 35.9735 106.945C36.3928 106.772 36.7998 106.686 37.1945 106.686C37.5398 106.686 37.8235 106.772 38.0455 106.945C38.2922 107.118 38.4155 107.377 38.4155 107.722C38.4155 108.265 38.1565 108.758 37.6385 109.202C37.1452 109.621 36.5902 109.831 35.9735 109.831ZM40.8121 127.739C40.0475 127.739 39.4061 127.48 38.8881 126.962C38.3455 126.469 38.0741 125.704 38.0741 124.668C38.0741 123.78 38.2715 122.83 38.6661 121.819C39.0608 120.783 39.6035 119.772 40.2941 118.785C40.9848 117.774 41.7618 116.861 42.6251 116.047C43.5131 115.208 44.4381 114.542 45.4001 114.049C46.3868 113.556 47.3611 113.309 48.3231 113.309C49.2851 113.309 50.0868 113.568 50.7281 114.086C51.3695 114.579 51.6901 115.245 51.6901 116.084C51.6901 116.701 51.5175 117.12 51.1721 117.342C50.8515 117.564 50.4198 117.675 49.8771 117.675C49.9265 117.478 49.9635 117.268 49.9881 117.046C50.0375 116.799 50.0621 116.577 50.0621 116.38C50.0621 115.813 49.9265 115.332 49.6551 114.937C49.3838 114.518 48.9151 114.308 48.2491 114.308C47.5585 114.308 46.8555 114.555 46.1401 115.048C45.4248 115.517 44.7341 116.158 44.0681 116.972C43.4021 117.761 42.8101 118.625 42.2921 119.562C41.7741 120.499 41.3671 121.424 41.0711 122.337C40.7751 123.25 40.6271 124.064 40.6271 124.779C40.6271 125.741 40.9601 126.222 41.6261 126.222C42.1935 126.222 42.8101 125.963 43.4761 125.445C44.1421 124.902 44.8205 124.224 45.5111 123.41C46.2265 122.571 46.9048 121.708 47.5461 120.82C48.1875 119.932 48.7548 119.118 49.2481 118.378C49.3468 118.23 49.4085 118.156 49.4331 118.156C49.5811 118.181 49.7661 118.23 49.9881 118.304C50.2348 118.378 50.4445 118.477 50.6171 118.6C50.7898 118.723 50.8761 118.884 50.8761 119.081C50.8761 119.303 50.7651 119.611 50.5431 120.006C50.3211 120.376 50.0745 120.808 49.8031 121.301C49.5318 121.794 49.2851 122.3 49.0631 122.818C48.8411 123.311 48.7301 123.78 48.7301 124.224C48.7301 124.594 48.8288 124.964 49.0261 125.334C49.2235 125.679 49.5441 125.852 49.9881 125.852C50.6541 125.852 51.5298 125.371 52.6151 124.409C53.7005 123.422 54.7981 121.955 55.9081 120.006L56.2781 120.376C55.7601 121.708 55.0941 122.88 54.2801 123.891C53.4661 124.902 52.5905 125.692 51.6531 126.259C50.7405 126.826 49.8401 127.11 48.9521 127.11C48.0395 127.11 47.3611 126.839 46.9171 126.296C46.4978 125.753 46.2881 125.161 46.2881 124.52C46.2881 124.372 46.3005 124.212 46.3251 124.039C46.3498 123.842 46.3745 123.644 46.3991 123.447C45.3385 124.878 44.3641 125.951 43.4761 126.666C42.6128 127.381 41.7248 127.739 40.8121 127.739Z" fill="#852BE0"/>
</svg>
